<?xml version="1.0" encoding="utf-8"?>
<!-- Generator: Adobe Illustrator 22.1.0, SVG Export Plug-In . SVG Version: 6.00 Build 0)  -->
<svg version="1.1" id="Capa_1" xmlns="http://www.w3.org/2000/svg" xmlns:xlink="http://www.w3.org/1999/xlink" x="0px" y="0px"
	 viewBox="0 0 512 512" style="enable-background:new 0 0 512 512;" xml:space="preserve">
<style type="text/css">
	.st0{fill:#BEAF87;}
</style>
<g>
	<g>
		<g>
			<path class="st0" d="M503.3,119.4c7.9-7.7,10.7-18.9,7.3-29.4s-12.3-17.9-23.2-19.5l-43.9-6.4c-4.5-0.6-8.3-3.4-10.3-7.5
				l-19.6-39.8c-4.9-9.9-14.7-16-25.7-16c-11,0-20.9,6.1-25.7,16l-19.6,39.8c-2,4-5.8,6.8-10.3,7.5l-43.9,6.4
				c-10.9,1.6-19.8,9.1-23.2,19.5c-3.4,10.5-0.6,21.7,7.3,29.4l31.8,31c3.2,3.1,4.7,7.7,3.9,12.1l-7.5,43.7
				c-1.9,10.8,2.5,21.6,11.4,28.1c5,3.7,10.9,5.5,16.8,5.5c4.6,0,9.1-1.1,13.4-3.3l39.3-20.6c4-2.1,8.7-2.1,12.7,0l39.3,20.6
				c9.7,5.1,21.3,4.3,30.2-2.2c8.9-6.5,13.3-17.2,11.4-28.1l-1.4-8.4c-0.7-4.1-4.6-6.8-8.7-6.1c-4.1,0.7-6.8,4.6-6.1,8.7l1.4,8.4
				c0.9,5.2-1.1,10.2-5.4,13.4c-4.3,3.1-9.7,3.5-14.4,1l-39.3-20.6c-8.4-4.4-18.3-4.4-26.7,0l-39.3,20.6c-4.7,2.5-10.1,2.1-14.4-1
				c-4.3-3.1-6.3-8.1-5.4-13.4l7.5-43.7c1.6-9.3-1.5-18.8-8.2-25.4l-31.8-31c-3.8-3.7-5.1-9-3.5-14c1.6-5.1,5.8-8.5,11-9.3l43.9-6.4
				c9.3-1.4,17.4-7.2,21.6-15.7l19.6-39.8c2.4-4.8,6.9-7.6,12.3-7.6c5.3,0,9.9,2.8,12.3,7.6l19.6,39.8c4.2,8.5,12.3,14.3,21.6,15.7
				l43.9,6.4c5.3,0.8,9.4,4.2,11,9.3c1.6,5.1,0.4,10.3-3.5,14l-31.8,31c-6.8,6.6-9.8,16.1-8.2,25.4l0.2,1.5c0.7,4.1,4.6,6.8,8.7,6.1
				c4.1-0.7,6.8-4.6,6.1-8.7l-0.3-1.5c-0.8-4.4,0.7-9,3.9-12.1L503.3,119.4z"/>
			<path class="st0" d="M412.6,324.9c5.3-6.2,8.5-14.2,8.5-23c0-19.4-15.8-35.2-35.2-35.2l-114.2-0.1c0,0-1.3-3.7-2.1-5.4
				c0,0,0,0,0,0c-1.7-3.7-2.4-7.8-1.9-11.7c1.7-12.8,2.1-26.1,2.4-36.8c0.9-27.4-4.6-47.5-16.7-61.2c-12.2-13.8-29.7-21.8-48.1-21.8
				c-0.1,0-0.3,0-0.4,0c-10.3,0.1-18.8,8.6-18.8,19.1v33.3c0,21.2-3.4,50.7-19.8,70.9c-17.4,21.4-32.3,21.2-57.2,20.9
				c-0.9,0-1.7,0-2.6,0v-9c0-14.9-12.2-27.1-27.1-27.1H27.1C12.2,237.7,0,249.9,0,264.8v75.4c0,4.1,3.4,7.5,7.5,7.5s7.5-3.4,7.5-7.5
				v-75.4c0-6.7,5.4-12.1,12.1-12.1h52.4c6.7,0,12.1,5.4,12.1,12.1v219.3c0,6.7-5.4,12.1-12.1,12.1H27.1c-6.7,0-12.1-5.4-12.1-12.1
				V374.4c0-4.1-3.4-7.5-7.5-7.5S0,370.3,0,374.4v109.6c0,14.9,12.2,27.1,27.1,27.1h52.4c14.9,0,27.1-12.2,27.1-27.1v-11.3h10.1
				c4.9,0,9.8,1.7,13.7,4.8c1,0.8,2.2,1.8,3.6,3c9.4,8,26.9,22.9,51.9,22.9l184.3,0c19.4,0,35.2-15.8,35.2-35.2
				c0-8.4-3-16.1-7.9-22.2c13.8-4.8,23.7-17.9,23.7-33.3c0-8.8-3.2-16.8-8.5-23c12.7-5.3,21.6-17.9,21.6-32.5
				C434.1,342.8,425.2,330.3,412.6,324.9L412.6,324.9z M321.8,281.8h64.1c11.1,0,20.2,9.1,20.2,20.2c0,11.1-9.1,20.2-20.2,20.2
				h-64.1c-11.1,0-20.2-9.1-20.2-20.2C301.6,290.8,310.7,281.8,321.8,281.8z M277.2,488.4h-91.4c-19.5,0-33.1-11.6-42.1-19.3
				c-1.4-1.2-2.7-2.3-4-3.3c-6.6-5.2-14.7-8.1-23-8.1h-10.1V288.8c0.8,0,1.6,0,2.4,0c26.3,0.3,47.1,0.6,69-26.4
				c10.6-13,23.2-37.5,23.2-80.4v-33.3c0-2.2,1.7-4,3.8-4.1c0.1,0,0.2,0,0.3,0c13.9,0,27.6,6.2,36.8,16.7
				c9.5,10.8,13.7,27.4,13,50.9c-0.3,10.4-0.7,23.3-2.3,35.3c-0.9,6.8,0.2,13.7,3.2,20c0,0,0,0.1,0,0.1c0,0.1,0,0.1,0.1,0.2
				c0,0,0,0,0,0c2.4,5.6,4.2,11.8,4.5,17.9c0.4,7.7-1.2,15.4-4.6,23c-0.1,0.2-7.2,15.8-26.7,24.5c-3.8,1.7-5.5,6.1-3.8,9.9
				c5.8,13.1,27.4-6.6,32.7-12.1c4.5-4.7,8.9-10.2,11.5-16.2c4.4-9.7,6.4-19.8,5.9-29.8c-0.1-1.1-0.2-2.3-0.3-3.5h17.8
				c-4.1,5.8-6.5,12.8-6.5,20.3c0,14.6,8.9,27.1,21.6,32.5c-5.3,6.2-8.5,14.2-8.5,23c0,8.8,3.2,16.8,8.5,23
				c-12.7,5.3-21.6,17.9-21.6,32.5c0,8.4,3,16.1,7.9,22.2c-13.8,4.8-23.7,17.9-23.7,33.3C270.8,475.8,273.2,482.7,277.2,488.4z
				 M370.1,488.4l-64.1,0c-11.1,0-20.2-9.1-20.2-20.2c0-11.1,9.1-20.2,20.2-20.2h64.1c11.1,0,20.2,9.1,20.2,20.2
				S381.2,488.4,370.1,488.4L370.1,488.4z M385.9,433h-64.1c-11.1,0-20.2-9.1-20.2-20.2c0-11.1,9.1-20.2,20.2-20.2h64.1
				c11.1,0,20.2,9.1,20.2,20.2C406.1,424,397,433,385.9,433L385.9,433z M398.9,377.6h-64.1c-11.1,0-20.2-9.1-20.2-20.2
				c0-11.1,9.1-20.2,20.2-20.2h64.1c11.1,0,20.2,9.1,20.2,20.2C419.1,368.5,410.1,377.6,398.9,377.6z"/>
		</g>
	</g>
</g>
</svg>
