<?xml version="1.0" encoding="utf-8"?>
<!-- Generator: Adobe Illustrator 22.1.0, SVG Export Plug-In . SVG Version: 6.00 Build 0)  -->
<svg version="1.1" id="Слой_1" xmlns:svgjs="http://svgjs.com/svgjs"
	 xmlns="http://www.w3.org/2000/svg" xmlns:xlink="http://www.w3.org/1999/xlink" x="0px" y="0px" viewBox="0 0 512 512"
	 style="enable-background:new 0 0 512 512;" xml:space="preserve">
<style type="text/css">
	.st0{fill:#BEAF87;}
</style>
<g>
	<path class="st0" d="M486.4,298.7h-25.6v-85.3c0-23.6-19.1-42.6-42.7-42.7H281.6c-23.6,0-42.6,19.1-42.7,42.7v85.3h-25.6
		c-14.1,0-25.6,11.5-25.6,25.6v85.3c0.1,22.5,17.6,41,40,42.4l-12.3,42.9h-79.8c-4.1-19.8-21.5-34.1-41.8-34.1H76.8V67.9
		c0-26.7,20.6-48.8,47.3-50.7s50.2,17.1,54,43.5l0.1,1c-11,4.5-17.4,16.1-15.4,27.8l2.3,13.8l-22.8,39.2c-3.1,5.3-3.1,11.8-0.1,17.1
		c3,5.3,8.6,8.6,14.7,8.6c1,0,2-0.1,2.9-0.2l81.9-13.8c6.5-1.1,11.8-5.9,13.6-12.3c1.8-6.4-0.3-13.2-5.3-17.5l-34.4-29.5l-2.3-13.8
		c-1.7-9.6-8.6-17.4-18-20.2l-0.4-2.6c-5-35.3-36.5-60.7-72.1-58.2S59.7,32.3,59.7,67.9v392.9H42.7v-8.5c0-4.7-3.8-8.5-8.5-8.5
		c-4.7,0-8.5,3.8-8.5,8.5v12.1C10.1,471.2,0,486.5,0,503.5c0,4.7,3.8,8.5,8.5,8.5h494.9c4.7,0,8.5-3.8,8.5-8.5
		c0-4.7-3.8-8.5-8.5-8.5h-19.2L472,452c22.4-1.4,39.9-19.9,40-42.4v-85.3C512,310.1,500.5,298.7,486.4,298.7z M238.9,137.3
		l-81.9,13.8l22.4-38.4l25.8-4.4L238.9,137.3L238.9,137.3z M197.9,92.3l-16.8,2.8l-1.4-8.4c-0.8-4.6,2.3-9,7-9.8
		c0.5-0.1,0.9-0.1,1.4-0.1c4.2,0,7.7,3,8.4,7.1L197.9,92.3z M281.6,187.7h136.5c14.1,0,25.6,11.5,25.6,25.6v86.9
		c-10.2,3.6-17,13.2-17.1,24v17.3c-7.3-5.6-16.3-8.7-25.6-8.8h-30.6l19.6-19.6c3.2-3.3,3.2-8.7-0.1-12c-3.3-3.3-8.6-3.3-12-0.1
		l-19.6,19.6v-39.1c0-4.7-3.8-8.5-8.5-8.5s-8.5,3.8-8.5,8.5v39.1l-19.6-19.6c-3.3-3.2-8.7-3.2-12,0.1c-3.3,3.3-3.3,8.6-0.1,12
		l19.6,19.6h-30.6c-9.3,0-18.3,3.1-25.6,8.8v-17.3c0-10.8-6.9-20.4-17.1-24v-86.9C256,199.2,267.5,187.8,281.6,187.7z M401.1,349.9
		c14.1,0,25.6,11.5,25.6,25.6v8.5H273.1v-8.5c0-14.1,11.5-25.6,25.6-25.6H401.1z M413.2,452.3l24.4,42.7H262.2l24.4-42.7H413.2z
		 M426.7,435.2H273.1v-34.1h153.6V435.2z M204.8,409.6v-85.3c0-4.7,3.8-8.5,8.5-8.5h34.1c4.7,0,8.5,3.8,8.5,8.5v110.9h-25.6
		C216.3,435.2,204.8,423.7,204.8,409.6z M18.5,494.9c3.6-10.2,13.3-17.1,24.1-17.1h51.2c10.8,0,20.5,6.8,24.1,17.1H18.5z
		 M233.2,494.9l12.2-42.7h21.5l-24.4,42.7H233.2z M457.2,494.9l-24.4-42.7h21.5l12.2,42.7H457.2z M494.9,409.6
		c0,14.1-11.5,25.6-25.6,25.6h-25.6V324.3c0-4.7,3.8-8.5,8.5-8.5h34.1c4.7,0,8.5,3.8,8.5,8.5V409.6z"/>
</g>
</svg>
