<?xml version="1.0" encoding="utf-8"?>
<!-- Generator: Adobe Illustrator 22.1.0, SVG Export Plug-In . SVG Version: 6.00 Build 0)  -->
<svg version="1.1" id="Слой_1" xmlns:svgjs="http://svgjs.com/svgjs"
	 xmlns="http://www.w3.org/2000/svg" xmlns:xlink="http://www.w3.org/1999/xlink" x="0px" y="0px" viewBox="0 0 512 512"
	 style="enable-background:new 0 0 512 512;" xml:space="preserve">
<style type="text/css">
	.st0{fill:#BEAF87;}
</style>
<g>
	<g>
		<g>
			<path class="st0" d="M231,220L231,220c0-8.3-6.7-15-15-15s-15,6.7-15,15s6.7,15,15,15S231,228.3,231,220z"/>
			<path class="st0" d="M296,205c-8.3,0-15,6.7-15,15s6.7,15,15,15s15-6.7,15-15v0C311,211.7,304.3,205,296,205z"/>
			<path class="st0" d="M273.4,265.3c-5.3,3.1-11.3,4.7-17.4,4.7s-12.1-1.6-17.4-4.7c-4.8-2.8-10.9-1.1-13.7,3.7
				c-2.8,4.8-1.1,10.9,3.7,13.7c8.3,4.8,17.8,7.3,27.4,7.3c9.6,0,19.1-2.5,27.4-7.3c4.8-2.8,6.4-8.9,3.7-13.7
				C284.3,264.2,278.2,262.6,273.4,265.3z"/>
			<path class="st0" d="M405.9,62.2c15.7-21.5,17.4-50.3,17.5-51.6c0.2-3.2-1.2-6.3-3.7-8.4s-5.9-2.7-9-1.8
				c-34.5,9.8-72.5,8.2-109.3,6.7c-5.5-0.2-10.2,4.1-10.4,9.6c-0.2,5.5,4.1,10.2,9.6,10.4c33.3,1.4,67.6,2.8,100.7-3.8
				c-2.3,10.2-7,23.9-16.5,32.9c-2.4,2.2-3.6,5.4-3.1,8.6c0.5,3.2,2.3,5.9,5.2,7.4c1,0.6,10.4,6.9,16.8,24.4
				c6,16.4,10.1,45.8-2.6,94c-1.6-0.3-3.3-0.4-5-0.4h-0.3c-4.3-63.9-49.7-81.7-51.7-82.4c-3.3-1.2-7-0.6-9.8,1.6
				c-2.8,2.2-4.1,5.7-3.6,9.2c0.4,2.5,0.2,6.2-0.4,10.2c-17.9-17.5-45.9-28.2-78.6-29.5c-25-1-55.9,4.1-71.4,21
				c-15.3,0.7-29.1,6.6-40,17.2c-13,12.7-21.5,31.9-23.6,52.8H116c-1.9,0-3.7,0.2-5.5,0.5c-10.3-33.3-11.9-78.5,5.2-104.7
				c8.6-13.1,21.3-20.2,37.6-20.9c2.9-0.1,5.6-1.5,7.4-3.8C173.6,45,190.4,35.1,213.4,30c5.4-1.2,8.8-6.5,7.6-11.9
				s-6.5-8.8-11.9-7.6c-25.7,5.6-45.8,17-61.2,34.8c-20.7,2.1-37.6,12.3-48.9,29.6c-10.6,16.2-16.3,38.5-16.3,64.4
				c0,20.8,3.6,42.4,10.2,61.7c-4.3,5.2-6.8,11.8-6.8,19c0,16.5,13.5,30,30,30h9.3c9.5,24.7,26.3,46.7,47.7,62.6
				c13.1,9.7,27.5,16.9,42.8,21.5c-1.6,23.8-10.8,25.9-20.3,25.9H176c-38.6,0-70,31.4-70,70v72c0,5.5,4.5,10,10,10h280
				c5.5,0,10-4.5,10-10v-72c0-38.6-31.4-70-70-70h-19.5c-9.4,0-18.7-2.2-20.3-25.9c15.2-4.6,29.7-11.8,42.8-21.5
				c21.4-15.9,38.2-37.9,47.7-62.6h9.3c16.5,0,30-13.5,30-30c0-7.3-2.7-14.1-7.1-19.3C442.7,115.5,420.1,76.9,405.9,62.2L405.9,62.2
				z M126,472h40v20h-40L126,472z M346,492v-20h40v20H346z M336,380c27.6,0,50,22.4,50,50v22h-40c0-5.5-4.5-10-10-10s-10,4.5-10,10
				v40H186v-40c0-5.5-4.5-10-10-10s-10,4.5-10,10h-40v-22c0-27.6,22.4-50,50-50h19.5c6.2,0,11.3-1,15.6-2.7
				c12.1,11.5,28.1,17.9,44.9,17.9c16.8,0,32.8-6.5,44.9-17.9c4.3,1.6,9.5,2.7,15.6,2.7L336,380L336,380z M283.8,363.1
				c0.3,0.6,0.7,1.1,1.1,1.7c-8.1,6.7-18.2,10.4-28.9,10.4s-20.8-3.7-28.9-10.4c0.4-0.5,0.7-1.1,1.1-1.6c3.9-6.4,6.3-14.4,7.3-24.7
				c6.8,1,13.6,1.5,20.5,1.5c6.9,0,13.8-0.5,20.5-1.5C277.5,348.7,279.9,356.7,283.8,363.1L283.8,363.1z M396,230h-16.3
				c-4.3,0-8.2,2.8-9.5,6.9C354,286.6,308.1,320,256,320s-98-33.4-114.1-83.1c-1.3-4.1-5.2-6.9-9.5-6.9H116c-5.5,0-10-4.5-10-10
				s4.5-10,10-10l10,0c5.5,0,10-4.5,10-10c0-19.3,6.8-37.4,18.1-48.4c7.9-7.7,17.7-11.6,29.2-11.6c0.5,0,0.9,0,1.4,0
				c3.4,0.1,6.6-1.5,8.5-4.3c7.5-10.8,31.1-17.7,57.5-16.6c26.7,1.1,60.3,10.9,74.3,35.2c1.8,3.1,5.1,5,8.6,5h0c3.6,0,6.8-1.9,8.6-5
				c3.2-5.5,5.7-12.7,7.1-20c11.5,9.6,26.6,29.2,26.6,65.8c0,5.5,4.5,10,10,10h10c5.5,0,10,4.5,10,10S401.5,230,396,230L396,230z"/>
			<path class="st0" d="M256,25.9c5.5,0,10-4.5,10-10s-4.5-10-10-10h0c-5.5,0-10,4.5-10,10S250.5,25.9,256,25.9z"/>
		</g>
	</g>
</g>
</svg>
