<svg width="26" height="26" viewBox="0 0 26 26" fill="none" xmlns="http://www.w3.org/2000/svg">
<rect width="26" height="26" rx="3" fill="url(#paint0_linear)"/>
<g clip-path="url(#clip0)">
<path d="M16.1127 5.57143H9.88706C7.50733 5.57143 5.57129 7.50747 5.57129 9.88719V16.1128C5.57129 18.4925 7.50733 20.4286 9.88706 20.4286H16.1127C18.4924 20.4286 20.4284 18.4925 20.4284 16.1128V9.88719C20.4284 7.50747 18.4924 5.57143 16.1127 5.57143ZM19.2677 16.1128C19.2677 17.8525 17.8524 19.2679 16.1127 19.2679H9.88706C8.14735 19.2679 6.732 17.8525 6.732 16.1128V9.88719C6.732 8.14749 8.14735 6.73214 9.88706 6.73214H16.1127C17.8524 6.73214 19.2677 8.14749 19.2677 9.88719V16.1128Z" fill="white"/>
<path d="M12.9996 8.99553C10.7915 8.99553 8.99512 10.7919 8.99512 13C8.99512 15.2081 10.7915 17.0045 12.9996 17.0045C15.2077 17.0045 17.004 15.2081 17.004 13C17.004 10.7919 15.2077 8.99553 12.9996 8.99553ZM12.9996 15.8437C11.4315 15.8437 10.1558 14.568 10.1558 13C10.1558 11.432 11.4315 10.1562 12.9996 10.1562C14.5676 10.1562 15.8433 11.432 15.8433 13C15.8433 14.568 14.5676 15.8437 12.9996 15.8437Z" fill="white"/>
<path d="M17.0628 9.51786C17.3833 9.51786 17.6431 9.25803 17.6431 8.9375C17.6431 8.61698 17.3833 8.35715 17.0628 8.35715C16.7423 8.35715 16.4824 8.61698 16.4824 8.9375C16.4824 9.25803 16.7423 9.51786 17.0628 9.51786Z" fill="white"/>
</g>
<defs>
<linearGradient id="paint0_linear" x1="0" y1="26" x2="26" y2="0" gradientUnits="userSpaceOnUse">
<stop offset="0.0647321" stop-color="#F5DC12"/>
<stop offset="0.359375" stop-color="#F81401"/>
<stop offset="0.700893" stop-color="#7B38AB"/>
</linearGradient>
<clipPath id="clip0">
<rect x="5.57129" y="5.57143" width="14.8571" height="14.8571" fill="white"/>
</clipPath>
</defs>
</svg>
