<?xml version="1.0" encoding="utf-8"?>
<!-- Generator: Adobe Illustrator 22.1.0, SVG Export Plug-In . SVG Version: 6.00 Build 0)  -->
<svg version="1.1" id="Capa_1" xmlns="http://www.w3.org/2000/svg" xmlns:xlink="http://www.w3.org/1999/xlink" x="0px" y="0px"
	 viewBox="0 0 512 512" style="enable-background:new 0 0 512 512;" xml:space="preserve">
<style type="text/css">
	.st0{fill:#BEAF87;}
</style>
<g>
	<g>
		<g id="menu">
			<path class="st0" d="M28.4,426.7h455.1c15.7,0,28.4-12.7,28.4-28.4v0c0-15.7-12.7-28.4-28.4-28.4H28.4
				C12.7,369.8,0,382.5,0,398.2v0C0,413.9,12.7,426.7,28.4,426.7z M28.4,284.4h455.1c15.7,0,28.4-12.7,28.4-28.4v0
				c0-15.7-12.7-28.4-28.4-28.4H28.4C12.7,227.6,0,240.3,0,256v0C0,271.7,12.7,284.4,28.4,284.4z M0,113.8L0,113.8
				c0,15.7,12.7,28.4,28.4,28.4h455.1c15.7,0,28.4-12.7,28.4-28.4v0c0-15.7-12.7-28.4-28.4-28.4H28.4C12.7,85.3,0,98.1,0,113.8z"/>
		</g>
	</g>
</g>
</svg>
