<?xml version="1.0" encoding="utf-8"?>
<!-- Generator: Adobe Illustrator 22.1.0, SVG Export Plug-In . SVG Version: 6.00 Build 0)  -->
<svg version="1.1" id="Слой_1" xmlns="http://www.w3.org/2000/svg" xmlns:xlink="http://www.w3.org/1999/xlink" x="0px" y="0px"
	 viewBox="0 0 20 20" style="enable-background:new 0 0 20 20;" xml:space="preserve">
<style type="text/css">
	.st0{fill:#242424;}
</style>
<path class="st0" d="M19.6,15.9l-2.2-1.5l-2-1.3c-0.4-0.3-0.9-0.2-1.2,0.2L13,14.9c-0.3,0.3-0.7,0.4-1.1,0.2c-0.8-0.5-1.8-0.9-4-3.1
	c-2.2-2.2-2.6-3.1-3.1-4C4.7,7.7,4.8,7.2,5.1,7l1.6-1.2C7.1,5.5,7.1,5,6.9,4.6L5.6,2.7L4.1,0.4C3.8,0,3.3-0.1,2.9,0.1L1.2,1.2
	c-0.5,0.3-0.8,0.7-1,1.3C-0.3,4.2-0.4,8,5.8,14.2c6.2,6.2,10,6.1,11.8,5.6c0.5-0.2,1-0.5,1.3-1l1.1-1.8C20.1,16.7,20,16.2,19.6,15.9
	z"/>
<path class="st0" d="M11.4,3.1c3.2,0,5.9,2.6,5.9,5.9c0,0.2,0.2,0.3,0.3,0.3c0.2,0,0.3-0.2,0.3-0.3c0-3.6-2.9-6.5-6.6-6.6
	c-0.2,0-0.3,0.2-0.3,0.3C11,2.9,11.2,3.1,11.4,3.1z"/>
<path class="st0" d="M11.4,5.2c2.1,0,3.8,1.7,3.8,3.8c0,0.2,0.2,0.3,0.3,0.3c0.2,0,0.3-0.2,0.3-0.3c0-2.5-2-4.5-4.5-4.5
	c-0.2,0-0.3,0.2-0.3,0.3C11,5,11.2,5.2,11.4,5.2z"/>
<path class="st0" d="M11.4,7.2c1,0,1.7,0.8,1.7,1.7c0,0.2,0.2,0.3,0.3,0.3c0.2,0,0.3-0.2,0.3-0.3c0-1.3-1.1-2.4-2.4-2.4
	c-0.2,0-0.3,0.2-0.3,0.3C11,7.1,11.2,7.2,11.4,7.2z"/>
</svg>
