<svg width="8" height="8" viewBox="0 0 8 8" fill="none" xmlns="http://www.w3.org/2000/svg">
<path d="M7.85549 1.78001L7.15356 1.07809C7.05732 0.981771 6.94026 0.933594 6.80267 0.933594C6.66496 0.933594 6.5479 0.981771 6.45166 1.07809L3.06581 4.46906L1.54838 2.94646C1.45202 2.85011 1.33504 2.80198 1.19745 2.80198C1.05977 2.80198 0.942791 2.85011 0.846436 2.94646L0.144514 3.6484C0.0481591 3.74474 0 3.86176 0 3.99942C0 4.13697 0.0481591 4.2541 0.144514 4.35041L2.01287 6.21873L2.71484 6.92065C2.81114 7.01705 2.92816 7.06517 3.06581 7.06517C3.20339 7.06517 3.32041 7.01692 3.41677 6.92065L4.11873 6.21873L7.85549 2.48199C7.95175 2.38563 8 2.26864 8 2.13097C8.00007 1.99338 7.95175 1.87637 7.85549 1.78001Z" fill="#1E7FF2"/>
</svg>
