<svg width="56" height="56" viewBox="0 0 56 56" fill="none" xmlns="http://www.w3.org/2000/svg">
<rect width="56" height="56" rx="3" fill="url(#paint0_linear)"/>
<path d="M44 27.5884C44 36.197 36.967 43.1757 28.2896 43.1757C25.5359 43.1757 22.9491 42.4713 20.6973 41.2379L12 44L14.8351 35.6345C13.4056 33.2867 12.5823 30.5299 12.5823 27.5873C12.5833 18.9787 19.6142 12 28.2916 12C36.9681 12.0021 44 18.9798 44 27.5884ZM28.2885 14.4855C21.0062 14.4855 15.0824 20.3644 15.0824 27.5915C15.0824 30.4589 16.0173 33.1135 17.5982 35.2735L15.9495 40.1392L21.0229 38.527C23.1098 39.896 25.6068 40.6933 28.2885 40.6933C35.5709 40.6933 41.4967 34.8154 41.4967 27.5884C41.4988 20.3644 35.5719 14.4855 28.2885 14.4855ZM36.223 31.1789C36.125 31.0214 35.8683 30.9254 35.4843 30.7334C35.1013 30.5414 33.2053 29.6179 32.8537 29.4927C32.4989 29.3643 32.2422 29.2996 31.9855 29.6826C31.732 30.0655 30.9932 30.9254 30.7668 31.1821C30.5424 31.4377 30.3181 31.4701 29.933 31.2812C29.548 31.0871 28.3063 30.6864 26.835 29.3852C25.6903 28.371 24.9171 27.1219 24.6938 26.739C24.4673 26.3571 24.6708 26.1505 24.8618 25.9605C25.0339 25.7884 25.2468 25.5139 25.4399 25.2896C25.6329 25.0673 25.6965 24.9098 25.8249 24.6541C25.9512 24.3985 25.8875 24.1762 25.7925 23.9832C25.6965 23.7912 24.9275 21.9129 24.6051 21.1481C24.2847 20.3843 23.9644 20.5105 23.739 20.5105C23.5147 20.5105 23.258 20.4792 23.0013 20.4792C22.7446 20.4792 22.3272 20.5721 21.9755 20.955C21.6239 21.338 20.6284 22.2615 20.6284 24.1418C20.6284 26.0242 22.0068 27.8388 22.1999 28.0934C22.394 28.347 24.8649 32.332 28.7789 33.8617C32.6951 35.3904 32.6951 34.8801 33.4005 34.8154C34.1079 34.7507 35.6794 33.8919 35.9987 33.0008C36.3201 32.1055 36.3201 31.3386 36.223 31.1789Z" fill="white"/>
<defs>
<linearGradient id="paint0_linear" x1="28" y1="56" x2="28" y2="0" gradientUnits="userSpaceOnUse">
<stop stop-color="#0DC73A"/>
<stop offset="1" stop-color="#41EC60"/>
</linearGradient>
</defs>
</svg>
