<svg width="56" height="56" viewBox="0 0 56 56" fill="none" xmlns="http://www.w3.org/2000/svg">
<rect width="56" height="56" rx="3" fill="url(#paint0_linear)"/>
<path d="M34.7046 12H21.2955C16.1699 12 12 16.1699 12 21.2955V34.7045C12 39.8301 16.1699 44 21.2955 44H34.7045C39.8301 44 44 39.8301 44 34.7046V21.2955C44 16.1699 39.8301 12 34.7046 12ZM41.5 34.7045C41.5 38.4516 38.4516 41.5 34.7046 41.5H21.2955C17.5484 41.5 14.5 38.4516 14.5 34.7046V21.2955C14.5 17.5484 17.5484 14.5 21.2955 14.5H34.7045C38.4516 14.5 41.5 17.5484 41.5 21.2955V34.7045Z" fill="white"/>
<path d="M28 19.375C23.2441 19.375 19.375 23.2441 19.375 28C19.375 32.7559 23.2441 36.625 28 36.625C32.7559 36.625 36.625 32.7559 36.625 28C36.625 23.2441 32.7559 19.375 28 19.375ZM28 34.125C24.6227 34.125 21.875 31.3773 21.875 28C21.875 24.6227 24.6227 21.875 28 21.875C31.3773 21.875 34.125 24.6227 34.125 28C34.125 31.3773 31.3773 34.125 28 34.125Z" fill="white"/>
<path d="M36.75 20.5C37.4404 20.5 38 19.9404 38 19.25C38 18.5596 37.4404 18 36.75 18C36.0596 18 35.5 18.5596 35.5 19.25C35.5 19.9404 36.0596 20.5 36.75 20.5Z" fill="white"/>
<defs>
<linearGradient id="paint0_linear" x1="0" y1="56" x2="56" y2="0" gradientUnits="userSpaceOnUse">
<stop offset="0.0647321" stop-color="#F5DC12"/>
<stop offset="0.359375" stop-color="#F81401"/>
<stop offset="0.700893" stop-color="#7B38AB"/>
</linearGradient>
</defs>
</svg>
