<svg width="26" height="26" viewBox="0 0 26 26" fill="none" xmlns="http://www.w3.org/2000/svg">
<rect width="26" height="26" rx="3" fill="url(#paint0_linear)"/>
<path d="M21 12.7942C21 17.0985 17.4835 20.5878 13.1448 20.5878C11.7679 20.5878 10.4745 20.2357 9.34865 19.619L5 21L6.41755 16.8173C5.70278 15.6434 5.29113 14.2649 5.29113 12.7937C5.29165 8.48935 8.80709 5 13.1458 5C17.484 5.00104 21 8.48988 21 12.7942ZM13.1443 6.24277C9.50308 6.24277 6.5412 9.18222 6.5412 12.7957C6.5412 14.2295 7.00867 15.5568 7.7991 16.6367L6.97476 19.0696L9.51143 18.2635C10.5549 18.948 11.8034 19.3466 13.1443 19.3466C16.7854 19.3466 19.7484 16.4077 19.7484 12.7942C19.7494 9.18222 16.786 6.24277 13.1443 6.24277ZM17.1115 14.5895C17.0625 14.5107 16.9341 14.4627 16.7421 14.3667C16.5507 14.2707 15.6027 13.8089 15.4268 13.7463C15.2495 13.6822 15.1211 13.6498 14.9928 13.8413C14.866 14.0328 14.4966 14.4627 14.3834 14.591C14.2712 14.7189 14.159 14.735 13.9665 14.6406C13.774 14.5435 13.1531 14.3432 12.4175 13.6926C11.8451 13.1855 11.4585 12.561 11.3469 12.3695C11.2337 12.1785 11.3354 12.0752 11.4309 11.9803C11.517 11.8942 11.6234 11.757 11.7199 11.6448C11.8164 11.5337 11.8483 11.4549 11.9124 11.3271C11.9756 11.1992 11.9438 11.0881 11.8963 10.9916C11.8483 10.8956 11.4638 9.95647 11.3025 9.57404C11.1424 9.19213 10.9822 9.25526 10.8695 9.25526C10.7573 9.25526 10.629 9.23961 10.5006 9.23961C10.3723 9.23961 10.1636 9.28604 9.98777 9.47752C9.81195 9.66899 9.31421 10.1307 9.31421 11.0709C9.31421 12.0121 10.0034 12.9194 10.0999 13.0467C10.197 13.1735 11.4325 15.166 13.3895 15.9308C15.3475 16.6952 15.3475 16.44 15.7002 16.4077C16.054 16.3754 16.8397 15.946 16.9993 15.5004C17.16 15.0528 17.16 14.6693 17.1115 14.5895Z" fill="white"/>
<defs>
<linearGradient id="paint0_linear" x1="13" y1="26" x2="13" y2="0" gradientUnits="userSpaceOnUse">
<stop stop-color="#0DC73A"/>
<stop offset="1" stop-color="#41EC60"/>
</linearGradient>
</defs>
</svg>
