<?xml version="1.0" encoding="utf-8"?>
<!-- Generator: Adobe Illustrator 22.1.0, SVG Export Plug-In . SVG Version: 6.00 Build 0)  -->
<svg version="1.1" id="Слой_1" xmlns:svgjs="http://svgjs.com/svgjs"
	 xmlns="http://www.w3.org/2000/svg" xmlns:xlink="http://www.w3.org/1999/xlink" x="0px" y="0px" viewBox="0 0 512 512"
	 style="enable-background:new 0 0 512 512;" xml:space="preserve">
<style type="text/css">
	.st0{fill:#BEAF87;}
</style>
<g>
	<g>
		<g>
			<path class="st0" d="M492,94c-18.6-45.2-57.9-75-105-79.8c-5.2-0.5-10.4-0.8-15.7-0.8c-47,0-91,21.6-120,58.3
				c-29-36.7-72.9-58.3-120-58.3c-5.2,0-10.5,0.3-15.7,0.8C68.6,19,29.3,48.9,10.7,94C-9,141.9-1.1,196.2,31.3,235.8l48.8,59.4
				c1.8,2.2,4.5,3.4,7.2,3.4c2.1,0,4.2-0.7,5.9-2.1c4-3.3,4.6-9.1,1.3-13.1L45.7,224C17.6,189.8,10.8,142.7,28,101.1
				c16-38.7,49.5-64.3,89.7-68.4c4.5-0.5,9.2-0.7,13.8-0.7c45.2,0,87.1,22.7,112.2,60.7c1.7,2.6,4.6,4.2,7.8,4.2s6-1.6,7.8-4.2
				c25.1-38,67-60.7,112.2-60.7c4.6,0,9.2,0.2,13.8,0.7c40.2,4.1,73.7,29.7,89.7,68.4c17.1,41.6,10.3,88.6-17.7,122.8l-32.5,39.6
				c-3.3,4-2.7,9.8,1.3,13.1c4,3.3,9.8,2.7,13.1-1.3l32.5-39.6C503.8,196.2,511.7,141.9,492,94z"/>
		</g>
	</g>
	<g>
		<g>
			<path class="st0" d="M341,380c-4-3.3-9.8-2.7-13.1,1.3l-76.6,93.3l-76.6-93.3c-3.3-4-9.1-4.6-13.1-1.3c-4,3.3-4.6,9.1-1.3,13.1
				l83.8,102.1c1.8,2.1,4.4,3.4,7.2,3.4s5.4-1.3,7.2-3.4l83.8-102.1C345.6,389.1,345,383.3,341,380z"/>
		</g>
	</g>
	<g>
		<g>
			<path class="st0" d="M381.7,307.9h-242c-5.1,0-9.3,4.2-9.3,9.3v65.2c0,5.1,4.2,9.3,9.3,9.3h242c5.1,0,9.3-4.2,9.3-9.3v-65.2
				C391,312.1,386.8,307.9,381.7,307.9z M372.4,373.1H149v-46.5h223.4V373.1z"/>
		</g>
	</g>
	<g>
		<g>
			<path class="st0" d="M46.6,307.9H18.6c-5.1,0-9.3,4.2-9.3,9.3v65.2c0,5.1,4.2,9.3,9.3,9.3h27.9c5.1,0,9.3-4.2,9.3-9.3v-65.2
				C55.9,312.1,51.7,307.9,46.6,307.9z M37.3,373.1h-9.3v-46.5h9.3V373.1z"/>
		</g>
	</g>
	<g>
		<g>
			<path class="st0" d="M128.8,242.7H104c-11.1,0-20.2,9-20.2,20.2v173.8c0,11.1,9,20.2,20.2,20.2h24.8c11.1,0,20.2-9,20.2-20.2
				V262.9C149,251.8,139.9,242.7,128.8,242.7z M130.3,436.7c0,0.9-0.7,1.5-1.5,1.5H104c-0.9,0-1.5-0.7-1.5-1.5V262.9
				c0-0.9,0.7-1.5,1.5-1.5h24.8c0.9,0,1.5,0.7,1.5,1.5V436.7z"/>
		</g>
	</g>
	<g>
		<g>
			<path class="st0" d="M84,280H55.7c-10.2,0-18.4,8.3-18.4,18.4v102.8c0,10.2,8.3,18.4,18.4,18.4H84c10.2,0,18.4-8.3,18.4-18.4
				V298.4C102.4,288.3,94.1,280,84,280z M83.8,401l-27.9,0.2l-0.2-102.6l28.1-0.2C83.8,298.4,83.8,401,83.8,401z"/>
		</g>
	</g>
	<g>
		<g>
			<path class="st0" d="M502.7,307.9h-27.9c-5.1,0-9.3,4.2-9.3,9.3v65.2c0,5.1,4.2,9.3,9.3,9.3h27.9c5.1,0,9.3-4.2,9.3-9.3v-65.2
				C512,312.1,507.8,307.9,502.7,307.9z M493.4,373.1h-9.3v-46.5h9.3V373.1z"/>
		</g>
	</g>
	<g>
		<g>
			<path class="st0" d="M417.4,242.7h-24.8c-11.1,0-20.2,9-20.2,20.2v173.8c0,11.1,9,20.2,20.2,20.2h24.8c11.1,0,20.2-9,20.2-20.2
				V262.9C437.5,251.8,428.5,242.7,417.4,242.7z M418.9,436.7c0,0.9-0.7,1.5-1.5,1.5h-24.8c-0.9,0-1.5-0.7-1.5-1.5V262.9
				c0-0.9,0.7-1.5,1.5-1.5h24.8c0.9,0,1.5,0.7,1.5,1.5V436.7z"/>
		</g>
	</g>
	<g>
		<g>
			<path class="st0" d="M465.6,280h-28.3c-10.2,0-18.4,8.3-18.4,18.4v102.8c0,10.2,8.3,18.4,18.4,18.4h28.3
				c10.2,0,18.4-8.3,18.4-18.4V298.4C484.1,288.3,475.8,280,465.6,280z M437.5,401l-0.2-102.4l28.1-0.2l0.2,102.6H437.5z"/>
		</g>
	</g>
	<g>
		<g>
			<path class="st0" d="M260.7,307.9c-5.1,0-9.3,4.2-9.3,9.3v65.2c0,5.1,4.2,9.3,9.3,9.3c5.1,0,9.3-4.2,9.3-9.3v-65.2
				C270,312.1,265.8,307.9,260.7,307.9z"/>
		</g>
	</g>
	<g>
		<g>
			<path class="st0" d="M214.1,307.9c-5.1,0-9.3,4.2-9.3,9.3v65.2c0,5.1,4.2,9.3,9.3,9.3c5.1,0,9.3-4.2,9.3-9.3v-65.2
				C223.4,312.1,219.3,307.9,214.1,307.9z"/>
		</g>
	</g>
	<g>
		<g>
			<path class="st0" d="M307.2,307.9c-5.1,0-9.3,4.2-9.3,9.3v65.2c0,5.1,4.2,9.3,9.3,9.3c5.1,0,9.3-4.2,9.3-9.3v-65.2
				C316.5,312.1,312.3,307.9,307.2,307.9z"/>
		</g>
	</g>
</g>
</svg>
