<?xml version="1.0" encoding="utf-8"?>
<!-- Generator: Adobe Illustrator 22.1.0, SVG Export Plug-In . SVG Version: 6.00 Build 0)  -->
<svg version="1.1" id="Слой_1" xmlns:svgjs="http://svgjs.com/svgjs"
	 xmlns="http://www.w3.org/2000/svg" xmlns:xlink="http://www.w3.org/1999/xlink" x="0px" y="0px" viewBox="0 0 512 512"
	 style="enable-background:new 0 0 512 512;" xml:space="preserve">
<style type="text/css">
	.st0{fill:#BEAF87;}
</style>
<g>
	<g id="Page-1">
		<g id="_x30_12---Study-Books" transform="translate(-1)">
			<path id="Shape" class="st0" d="M111.9,443.7h25.6c4.7,0,8.5-3.8,8.5-8.5s-3.8-8.5-8.5-8.5h-25.6c-4.7,0-8.5,3.8-8.5,8.5
				S107.2,443.7,111.9,443.7z"/>
			<path id="Shape_1_" class="st0" d="M163.1,435.2c0,4.7,3.8,8.5,8.5,8.5h238.9c4.7,0,8.5-3.8,8.5-8.5s-3.8-8.5-8.5-8.5H171.7
				C167,426.7,163.1,430.5,163.1,435.2z"/>
			<path id="Shape_2_" class="st0" d="M453.3,426.7h-8.5c-4.7,0-8.5,3.8-8.5,8.5s3.8,8.5,8.5,8.5h8.5c4.7,0,8.5-3.8,8.5-8.5
				S458,426.7,453.3,426.7z"/>
			<path id="Shape_3_" class="st0" d="M427.7,409.6h25.6c4.7,0,8.5-3.8,8.5-8.5s-3.8-8.5-8.5-8.5h-25.6c-4.7,0-8.5,3.8-8.5,8.5
				S423,409.6,427.7,409.6z"/>
			<path id="Shape_4_" class="st0" d="M239.9,409.6h153.6c4.7,0,8.5-3.8,8.5-8.5s-3.8-8.5-8.5-8.5H239.9c-4.7,0-8.5,3.8-8.5,8.5
				S235.2,409.6,239.9,409.6z"/>
			<path id="Shape_5_" class="st0" d="M111.9,409.6h93.9c4.7,0,8.5-3.8,8.5-8.5s-3.8-8.5-8.5-8.5h-93.9c-4.7,0-8.5,3.8-8.5,8.5
				S107.2,409.6,111.9,409.6z"/>
			<path id="Shape_6_" class="st0" d="M495.9,324.3H94.9c-26.1,0-50.9,10.8-68.7,29.9C8.4,373.3-0.6,398.9,1.2,424.9
				c4.4,49.7,46.4,87.7,96.3,87.1h398.4c9.4,0,17.1-7.6,17.1-17.1v-17.1c0-9.4-7.6-17.1-17.1-17.1v-85.3c9.4,0,17.1-7.6,17.1-17.1
				v-17.1C513,331.9,505.4,324.3,495.9,324.3z M478.9,460.8H96.6c-21.9,0.5-40.7-15.4-44.1-37c-1.6-12.2,2.1-24.5,10.2-33.7
				c8.1-9.2,19.8-14.6,32.1-14.6h384V460.8z M495.9,358.4H94.9c-17.2,0-33.6,7.4-44.9,20.3c-11.3,12.9-16.6,30.1-14.3,47.2
				c4.4,30.2,30.5,52.4,61,51.9h399.3v17.1H97.5c-41,0.6-75.5-30.4-79.3-71.3c-1.5-21.3,5.8-42.2,20.4-57.8s34.9-24.5,56.2-24.5
				h401.1V358.4z"/>
			<path id="Shape_7_" class="st0" d="M501.6,86.3L262.8,1c-3.8-1.3-7.9-1.3-11.7,0L12.3,86.3c-6.8,2.4-11.3,8.9-11.3,16.1
				c0,7.2,4.5,13.6,11.3,16.1L129,160.1v70.3c0,33.2,114.9,34.1,128,34.1c13.1,0,128-1,128-34.1v-70.3l25.6-9.1v19.6
				c0,9.4,7.6,17.1,17.1,17.1h17.1c9.4,0,17.1-7.6,17.1-17.1v-25.6c0-4-1-7.8-2.8-11.4l42.7-15.3c6.8-2.4,11.3-8.9,11.3-16.1
				S508.5,88.8,501.6,86.3L501.6,86.3z M367.9,211.6c-32.5-14.8-101-15.4-110.9-15.4c-9.9,0-78.4,0.6-110.9,15.4v-91.4
				c5.1-6.6,45.4-17.8,110.9-17.8s105.8,11.2,110.9,17.8V211.6z M257,247.5c-63.1,0-102.8-10.4-110.2-17.1
				c7.4-6.6,47.1-17.1,110.2-17.1s102.8,10.4,110.2,17.1C359.8,237,320.1,247.5,257,247.5z M414.6,131.5L385,142v-22.5
				c0-33.2-114.9-34.1-128-34.1c-13.1,0-128,1-128,34.1V142L18.1,102.4l239.1-85.3L427.7,78v43C422.3,123,417.7,126.6,414.6,131.5z
				 M444.7,170.7h-17.1v-25.6c0-4.7,3.8-8.5,8.5-8.5s8.5,3.8,8.5,8.5V170.7z M444.7,120.7V84.1l51.2,18.3L444.7,120.7z"/>
		</g>
	</g>
</g>
</svg>
