<?xml version="1.0" encoding="utf-8"?>
<!-- Generator: Adobe Illustrator 22.1.0, SVG Export Plug-In . SVG Version: 6.00 Build 0)  -->
<svg version="1.1" id="Слой_1" xmlns:svgjs="http://svgjs.com/svgjs"
	 xmlns="http://www.w3.org/2000/svg" xmlns:xlink="http://www.w3.org/1999/xlink" x="0px" y="0px" viewBox="0 0 512 512"
	 style="enable-background:new 0 0 512 512;" xml:space="preserve">
<style type="text/css">
	.st0{fill:#BEAF87;}
</style>
<g>
	<g id="Outline">
		<g>
			<path class="st0" d="M384,432c0-17.7-14.3-32-32-32s-32,14.3-32,32s14.3,32,32,32S384,449.7,384,432z M336,432
				c0-8.8,7.2-16,16-16s16,7.2,16,16s-7.2,16-16,16S336,440.8,336,432z"/>
			<path class="st0" d="M448.9,422.5c-4.4-0.6-8.4,2.5-9,6.8L433,480H312c-4.4,0-8,3.6-8,8s3.6,8,8,8h128c4,0,7.4-3,7.9-6.9
				l7.8-57.5C456.4,427.2,453.3,423.1,448.9,422.5C448.9,422.5,448.9,422.5,448.9,422.5z"/>
			<path class="st0" d="M470,306.7c-1.5-1.7-3.7-2.7-6-2.7h-37.6l13.4-70.5c0.2-0.9,0.2-1.9,0-2.8l3.7-17.2l11.9,19.9l-9.6,45.2
				c-0.9,4.3,1.8,8.6,6.1,9.5c0.6,0.1,1.1,0.2,1.7,0.2c3.8,0,7-2.6,7.8-6.3l10.3-48.2c0.4-2,0.1-4.1-1-5.8l-24-40
				c-2.3-3.8-7.2-5-11-2.8c-1.9,1.1-3.2,3-3.7,5.2l-6.6,30.5l-30.7-12.3c-4.1-1.6-8.8,0.4-10.4,4.5c-0.2,0.6-0.4,1.3-0.5,1.9
				l-6.6,53.1l-5.3-1.3l-4.1-51.3c-0.2-1.7-0.9-3.4-2.1-4.7l1.6-20.6l7.6-2.3l21.1,11.2c3.9,2.1,8.7,0.7,10.9-3.1s0.7-8.7-3.1-10.9
				c-0.1,0-0.1-0.1-0.2-0.1l-24-12.8c-1.9-1-4-1.2-6.1-0.6l-16,4.8c-3.2,0.9-5.4,3.7-5.7,7l-1,12.4l-9.4-9.4
				c-3.1-3.1-8.2-3.1-11.3,0c-0.3,0.3-0.5,0.5-0.7,0.8L320,200v-8c0-13.3-10.7-24-24-24h-16v-8c0-13.3-10.7-24-24-24h-40V98.2
				l61.3-40.9c3.7-2.5,4.7-7.4,2.2-11.1c0,0,0,0,0,0l-17.7-26.6c-2.5-3.7-7.4-4.7-11.1-2.2c0,0,0,0,0,0l-72,48
				c-6.7,4.4-10.7,11.9-10.7,20V136h-40c-13.3,0-24,10.7-24,24v8H88c-13.3,0-24,10.7-24,24v16c0,0.2,4.8,42.1,4.8,42.1
				c0.5,4,3.9,7.1,7.9,7.1c0.3,0,0.6,0,0.9-0.1c4.4-0.5,7.5-4.5,7-8.8L81,216h63c4.4,0,8-3.6,8-8s-3.6-8-8-8H80v-8c0-4.4,3.6-8,8-8
				h208c4.4,0,8,3.6,8,8v8H176c-4.4,0-8,3.6-8,8s3.6,8,8,8h132l-2.4,3.2c-1.2,1.6-1.8,3.5-1.6,5.5l2.4,28.8l-2.9-8.2
				c-0.8-2.3-2.6-4.1-4.9-4.9l-23.7-8.1c-4.2-1.4-8.7,0.8-10.2,5l-4.3,12.6l-5-12.7c-1.2-3.1-4.1-5.1-7.4-5.1h-32c-4.4,0-8,3.6-8,8
				c0,0.9,0.2,1.9,0.5,2.8l5,13.5c-1.8-0.1-3.6-0.3-5.5-0.3h-80c-17.3,0-34.1,5.1-48.5,14.6c-3.7,2.4-4.7,7.4-2.2,11.1
				c2.4,3.7,7.4,4.7,11.1,2.2c11.8-7.8,25.6-12,39.7-11.9h80c36.7,0,67.4,27.6,71.6,64H56.4c1.3-11.3,5.2-22.2,11.5-31.7
				c2.3-3.8,1-8.7-2.8-11c-3.6-2.1-8.2-1.2-10.6,2.2C45.1,309.9,40,326.8,40,344c0,4.4,3.6,8,8,8h1c1.4,5.7,4.2,10.9,8.2,15.1
				C56.4,370,56,373,56,376c0,10.4,4.1,20.3,11.3,27.7c-9.6,5.9-13.7,17.7-9.8,28.3H48c-4.4,0-8,3.6-8,8v16c0,22.1,17.9,40,40,40h24
				c4.4,0,8-3.6,8-8s-3.6-8-8-8H80c-13.3,0-24-10.7-24-24v-8h125.8l4,5c2.8,3.5,7.8,4,11.2,1.3c0.5-0.4,0.9-0.8,1.3-1.3l29.6-37H256
				c4.4,0,8,3.6,8,8s-3.6,8-8,8h-17.6c-4.4,0-8,3.6-8,8s3.6,8,8,8H280v8c0,13.3-10.7,24-24,24H136c-4.4,0-8,3.6-8,8s3.6,8,8,8h120
				c22.1,0,40-17.9,40-40v-16c0-4.4-3.6-8-8-8h-9.5c3.9-10.6-0.2-22.4-9.8-28.3c7.2-7.4,11.3-17.4,11.3-27.7c0-2.8-0.4-5.7-1-8.4
				c4.7-3.9,7.8-9.5,8.6-15.6h0.4c0.5,0,1-0.1,1.5-0.3c16.8,16,39.3,24.8,62.5,24.3c40.7,0,74.4-24.5,79.4-56h23.5l-10.6,77.7
				c-0.6,4.4,2.5,8.4,6.9,9c0,0,0,0,0,0c0.4,0.1,0.7,0.1,1.1,0.1c4,0,7.4-3,7.9-6.9l11.8-86.7C472.2,310.8,471.5,308.5,470,306.7z
				 M184,85.3c0-2.7,1.3-5.2,3.6-6.7l65.3-43.6l8.9,13.3l-58.2,38.8c-2.2,1.5-3.6,4-3.6,6.7V136h-16V85.3z M120,168v-8
				c0-4.4,3.6-8,8-8h128c4.4,0,8,3.6,8,8v8H120z M367.5,282.1l16.2,4l-4.1,69.1c-5.3,1.9-10.8,3.3-16.4,4L367.5,282.1z M336.9,204.2
				l15.4,15.4l3.7,45.7c-0.2,0.1-0.4,0.2-0.7,0.3c-1.9,1.4-3.1,3.6-3.2,6l-4.9,88.2c-5.4-0.3-10.8-1.2-16-2.5l-10.9-130.8
				L336.9,204.2z M227.5,248h15l7.2,18.6c-5.7-3.1-11.8-5.5-18.1-7.2L227.5,248z M263.8,373.5c0.1,0.8,0.2,1.6,0.2,2.5
				c0,13.3-10.7,24-24,24H96c-12.8,0-23.4-10.2-23.9-23l0.7,0.4c9.5,4.7,20.8,4.7,30.3,0L116,371c2.5-1.3,5.5-1.3,8,0l16.9,8.4
				c7,3.5,15.3,3.5,22.3,0l16.9-8.5c2.5-1.3,5.5-1.3,8,0l16.9,8.4c7,3.5,15.3,3.5,22.3,0l16.9-8.4c2.5-1.3,5.5-1.3,8,0
				C255.6,372.8,259.7,373.6,263.8,373.5L263.8,373.5z M80,432c-4.4,0-8-3.6-8-8s3.6-8,8-8h76.2l12.8,16H80z M192,435.2L176.6,416
				h30.7L192,435.2z M267.8,356.2c-0.3,0.2-0.6,0.3-0.9,0.4c-0.1,0-0.1,0-0.2,0c-0.1,0-0.2,0.1-0.3,0.2c-2.3,1-5,0.9-7.3-0.2
				c-7-3.5-15.3-3.5-22.3,0l-16.9,8.5c-2.5,1.3-5.5,1.3-8,0l-16.9-8.4c-7-3.5-15.3-3.5-22.3,0l-16.9,8.4c-2.5,1.3-5.5,1.3-8,0
				l-16.9-8.4c-7-3.5-15.3-3.5-22.3,0L96,363c-5,2.5-11,2.5-16,0l-6.1-3c-3.4-1.7-6.2-4.6-7.9-8h205.3
				C270.6,353.8,269.4,355.2,267.8,356.2L267.8,356.2z M295.4,334c-1.4-12.6-5.6-24.8-12.2-35.6l-10.7-34.3l4.8-14.1l12.5,4.3
				l21.9,61.9l2.9,34.4C307,346.6,300.4,340.9,295.4,334L295.4,334z M396.1,346.7l3.9-66.2c0.2-3.8-2.3-7.3-6-8.2l-0.9-0.2l5.6-44.7
				l24.2,9.7l-19.8,103.8C401,342.9,398.6,344.9,396.1,346.7L396.1,346.7z"/>
			<circle class="st0" cx="184" cy="304" r="8"/>
			<circle class="st0" cx="152" cy="296" r="8"/>
			<circle class="st0" cx="128" cy="312" r="8"/>
			<circle class="st0" cx="248" cy="312" r="8"/>
			<circle class="st0" cx="96" cy="304" r="8"/>
			<circle class="st0" cx="216" cy="296" r="8"/>
		</g>
	</g>
</g>
</svg>
